# xmcd CD database file
#
# Track frame offsets:
#	150
#	19354
#	37623
#	50652
#	72619
#	91201
#	111916
#	124192
#	145444
#	165678
#	181732
#	201343
#	220485
#	239469
#	255548
#
# Disc length: 3610 seconds
#
# Revision: 0
# Processed by: cddbd v1.5.1PL2 Copyright (c) Steve Scherf et al.
# Submitted via: CDex 1.51
#
DISCID=e10e180f
DTITLE=L'Aura - Okumuki
DYEAR=2006
DGENRE=New Age
TTITLE0=Irraggiungibile
TTITLE1=Today
TTITLE2=Radio Star
TTITLE3=Una Favola
TTITLE4=Demons In Your Dreams
TTITLE5=Piove
TTITLE6=Dar Lin
TTITLE7=Breathing
TTITLE8=Degli Alberi
TTITLE9=If Everybody Had A Gun
TTITLE10=Alice
TTITLE11=Domani
TTITLE12=Lettere D'Amore
TTITLE13=Mr. Oh!
TTITLE14=Life On Mars - edit
EXTD=YEAR: 2006
EXTT0=
EXTT1=
EXTT2=
EXTT3=
EXTT4=
EXTT5=
EXTT6=
EXTT7=
EXTT8=
EXTT9=
EXTT10=
EXTT11=
EXTT12=
EXTT13=
EXTT14=
PLAYORDER=
